<?xml version="1.0" encoding="UTF-8" standalone="no"?>
<!DOCTYPE svg PUBLIC "-//W3C//DTD SVG 1.1//EN" "http://www.w3.org/Graphics/SVG/1.1/DTD/svg11.dtd">
<svg width="100%" height="100%" viewBox="0 0 3406 3402" version="1.1" xmlns="http://www.w3.org/2000/svg" xmlns:xlink="http://www.w3.org/1999/xlink" xml:space="preserve" xmlns:serif="http://www.serif.com/" style="fill-rule:evenodd;clip-rule:evenodd;stroke-linecap:round;stroke-linejoin:round;stroke-miterlimit:1.5;">
    <g id="Artboard1" transform="matrix(0.68614,0,0,0.759206,-2403.55,-1370.37)">
        <rect x="3503" y="1805" width="4964" height="4481" style="fill:none;"/>
        <g transform="matrix(1.45743,0,0,1.31717,-2859.4,-675.883)">
            <text x="5461px" y="4112.2px" style="font-family:'Phosphate-Inline', 'Phosphate';font-size:1600px;">O</text>
        </g>
        <g transform="matrix(1.45743,0,0,1.31717,-2758.11,-1124.38)">
            <path d="M4758,5150L4753,3630L6000,5085L7244,3630L7256,5093" style="fill:none;stroke:black;stroke-width:166.67px;"/>
        </g>
        <g transform="matrix(1.4484,0.146372,-0.149295,1.20665,-2109.35,-1697.77)">
            <path d="M6619.5,3630L6863,3385.5" style="fill:none;stroke:black;stroke-width:173.3px;"/>
        </g>
        <g transform="matrix(1.45732,-0.0157481,0.0174251,1.31707,-2632.07,-1122.45)">
            <path d="M6347,3385.5L6741.25,2802" style="fill:none;stroke:black;stroke-width:166.67px;"/>
        </g>
        <g transform="matrix(1.45743,0,0,1.31717,-2578.85,-1174.43)">
            <path d="M6005.5,3230L6139,2802" style="fill:none;stroke:black;stroke-width:166.67px;"/>
        </g>
        <g transform="matrix(1.45743,0,0,1.31717,-2708.56,-1111.7)">
            <path d="M5749,3230L5602,2523" style="fill:none;stroke:black;stroke-width:166.67px;"/>
        </g>
        <g transform="matrix(1.45743,0,0,1.31717,-2573.02,-1178.38)">
            <path d="M5391.5,3385.5L5043,3093.75" style="fill:none;stroke:black;stroke-width:166.67px;"/>
        </g>
        <g transform="matrix(1.44927,-0.139133,0.153949,1.3098,-3124.4,-374.735)">
            <path d="M5217.25,3624L4898,3488" style="fill:none;stroke:black;stroke-width:166.67px;"/>
        </g>
    </g>
</svg>
